<?xml version="1.0" encoding="UTF-8" standalone="no"?>
<!-- Created with Inkscape (http://www.inkscape.org/) -->

<svg
   width="512"
   height="512"
   viewBox="0 0 512 512"
   version="1.1"
   id="svg1"
   xml:space="preserve"
   xmlns:xlink="http://www.w3.org/1999/xlink"
   xmlns="http://www.w3.org/2000/svg"
   xmlns:svg="http://www.w3.org/2000/svg"><defs
     id="defs1"><linearGradient
       id="linearGradient4"><stop
         style="stop-color:#ce00ce;stop-opacity:1;"
         offset="0"
         id="stop3" /><stop
         style="stop-color:#ff0000;stop-opacity:1;"
         offset="1"
         id="stop4" /></linearGradient><linearGradient
       id="linearGradient1"><stop
         style="stop-color:#ff0000;stop-opacity:1;"
         offset="0"
         id="stop1" /><stop
         style="stop-color:#ffd500;stop-opacity:1;"
         offset="1"
         id="stop2" /></linearGradient><linearGradient
       xlink:href="#linearGradient1"
       id="linearGradient2"
       x1="136.10028"
       y1="-148.03891"
       x2="198.18109"
       y2="-210.11972"
       gradientUnits="userSpaceOnUse"
       gradientTransform="matrix(0.91161167,0,0,0.91161167,44.305735,430.98959)" /><linearGradient
       xlink:href="#linearGradient4"
       id="linearGradient3"
       gradientUnits="userSpaceOnUse"
       x1="136.10028"
       y1="-148.03891"
       x2="198.18109"
       y2="-210.11972"
       gradientTransform="matrix(0.91161165,0,0,0.91161165,134.76059,413.08165)" /></defs><g
     id="layer1"><g
       id="g7"
       transform="matrix(1.2377551,0,0,1.2377551,-60.865305,-60.865305)"><path
         id="rect1"
         style="fill:#29194d"
         d="m 93.469376,48.118717 331.392664,0 a 41.129719,41.129719 45 0 1 41.12972,41.129719 V 420.6411 a 41.129719,41.129719 135 0 1 -41.12972,41.12972 l -331.392664,0 A 41.129719,41.129719 45 0 1 52.339657,420.6411 V 89.248436 A 41.129719,41.129719 135 0 1 93.469376,48.118717 Z"
         transform="translate(-3.1657085,1.0552315)" /><text
         xml:space="preserve"
         style="font-style:normal;font-variant:normal;font-weight:normal;font-stretch:normal;font-size:104.936px;font-family:'Bauhaus 93';-inkscape-font-specification:'Bauhaus 93, Normal';font-variant-ligatures:normal;font-variant-caps:normal;font-variant-numeric:normal;font-variant-east-asian:normal;text-align:start;writing-mode:lr-tb;direction:ltr;text-anchor:start;fill:#ffffff;fill-opacity:1;stroke-width:8.74465"
         x="106.71727"
         y="394.95486"
         id="text1"><tspan
           id="tspan1"
           x="106.71727"
           y="394.95486"
           style="font-style:normal;font-variant:normal;font-weight:normal;font-stretch:normal;font-size:104.936px;font-family:'Bauhaus 93';-inkscape-font-specification:'Bauhaus 93, Normal';font-variant-ligatures:normal;font-variant-caps:normal;font-variant-numeric:normal;font-variant-east-asian:normal;fill:#ffffff;fill-opacity:1;stroke-width:8.74465">groovv</tspan></text><circle
         style="fill:url(#linearGradient2);stroke-width:0.911612"
         id="path1"
         cx="196.67311"
         cy="267.7388"
         r="28.296803" /><circle
         style="fill:url(#linearGradient3);fill-opacity:1;stroke-width:0.911611"
         id="circle2"
         cx="287.12793"
         cy="249.83087"
         r="28.296803" /><path
         style="fill:#ffffff;fill-opacity:1"
         d="m 196.67315,296.0356 c 3.28348,1.25726 27.51707,-3.46769 28.2968,-28.2968 v -85.0779 l 77.01383,-20.6358 -0.92709,87.80577 c -0.82096,19.2256 -10.04119,20.53274 -16.28064,28.19889 5.9768,1.23554 30.76962,-2.68799 30.55081,-30.5508 V 120.2816 l -101.34894,27.15637 0.22529,120.30083 c -0.61981,15.36811 -11.41494,19.17336 -17.53006,28.2968 z"
         id="path4" /></g></g></svg>
